<?xml version="1.0" standalone="no"?>
<!DOCTYPE svg PUBLIC "-//W3C//DTD SVG 20010904//EN"
 "http://www.w3.org/TR/2001/REC-SVG-20010904/DTD/svg10.dtd">
<svg version="1.0" xmlns="http://www.w3.org/2000/svg"
 width="700.000000pt" height="700.000000pt" viewBox="0 0 700.000000 700.000000"
 preserveAspectRatio="xMidYMid meet">
<metadata>
Created by potrace 1.14, written by Peter Selinger 2001-2017
</metadata>
<g transform="translate(0.000000,700.000000) scale(0.100000,-0.100000)"
fill="#000000" stroke="none">
<path d="M3958 6595 c-2 -1 -41 -5 -88 -9 -414 -32 -777 -128 -1101 -291 -499
-251 -883 -644 -1138 -1165 -29 -58 -56 -113 -61 -122 -6 -10 -10 -23 -10 -30
0 -7 -6 -25 -14 -40 -12 -23 -71 -188 -81 -228 -3 -8 -18 -64 -35 -125 -17
-60 -32 -122 -35 -137 -3 -16 -7 -43 -11 -60 -3 -18 -9 -51 -14 -73 -5 -22
-12 -62 -15 -90 -4 -27 -8 -57 -10 -65 -2 -8 -7 -46 -10 -85 -4 -38 -8 -81
-11 -95 -22 -134 -22 -813 1 -882 2 -7 6 -44 9 -83 4 -38 8 -83 11 -100 7 -44
24 -146 29 -175 74 -423 257 -865 495 -1190 30 -41 60 -80 65 -86 6 -7 27 -32
46 -57 52 -68 253 -265 347 -339 312 -252 702 -431 1113 -512 198 -39 302 -53
470 -63 208 -12 565 -6 660 11 14 3 48 7 75 10 59 7 101 13 175 27 30 6 64 12
75 14 11 1 40 8 65 15 25 7 53 14 62 15 78 15 362 110 463 154 128 56 360 178
460 240 l110 69 1 416 c0 229 -1 416 -3 416 -1 0 -11 -8 -21 -17 -186 -183
-507 -395 -770 -510 -153 -66 -358 -133 -487 -159 -199 -39 -306 -49 -545 -49
-236 0 -337 8 -525 41 -76 13 -265 68 -348 100 -297 117 -496 261 -718 520
-26 31 -125 172 -145 209 -98 177 -155 307 -203 463 -30 96 -74 274 -86 342
-17 105 -25 161 -31 215 -3 33 -7 71 -9 84 -23 137 -23 701 0 851 2 14 6 52
10 85 13 127 54 335 92 470 25 89 84 257 101 292 6 10 31 63 58 117 44 93 158
273 214 341 55 66 189 200 250 250 151 123 350 231 550 300 114 39 352 90 465
100 39 3 90 8 115 11 59 7 361 7 425 -1 139 -15 222 -26 245 -30 121 -25 186
-40 257 -61 342 -99 681 -283 966 -523 50 -42 102 -86 117 -98 l27 -22 0 420
1 419 -122 76 c-261 163 -591 302 -896 379 -21 5 -69 16 -85 19 -11 3 -40 9
-65 15 -39 8 -85 16 -210 36 -14 2 -54 7 -90 10 -36 4 -78 9 -95 12 -31 5
-532 12 -537 8z"/>
</g>
</svg>
