<?xml version="1.0" encoding="UTF-8"?>
<svg width="80px" id="Layer_1" data-name="Layer 1" xmlns="http://www.w3.org/2000/svg" viewBox="0 0 75.32 71.97">
  <defs>
    <style>
      .cls-1 {
        fill: #fff;
        fill-rule: evenodd;
      }
    </style>
  </defs>
  <path class="cls-1" d="m8.64,58.82h-2.95v1.17h2.71v.98h-2.71v1.43h3.08v.99h-4.21v-5.55h4.08v.98Zm3.73,3.06l.56.52c-.19.1-.41.15-.63.15-.63,0-1.51-.39-1.51-1.94s.88-1.94,1.51-1.94,1.51.39,1.51,1.94c0,.52-.1.9-.25,1.19l-.59-.55-.6.62Zm2.62,1.28l-.6-.57c.34-.43.58-1.07.58-1.98,0-2.61-1.93-2.92-2.67-2.92s-2.67.32-2.67,2.92,1.93,2.92,2.67,2.92c.32,0,.9-.06,1.42-.37l.66.63s.61-.63.61-.63Zm5.44-1.71c0,1.46-.88,2.09-2.28,2.09-.51,0-1.27-.12-1.76-.67-.3-.34-.42-.79-.43-1.35v-3.68h1.18v3.6c0,.78.45,1.11.99,1.11.8,0,1.12-.39,1.12-1.06v-3.66h1.18v3.61s0,0,0,0Zm3.11-2.36h.02l.69,2.2h-1.42l.71-2.2Zm-1.02,3.15h2.05l.36,1.15h1.26l-1.95-5.55h-1.34l-1.98,5.55h1.22s.38-1.15.38-1.15Zm5.73.14h2.76v1h-3.92v-5.55h1.16v4.55Zm7.16-1.49v2.49h-1.16v-5.55h1.16v2.1h2.17v-2.1h1.16v5.55h-1.16v-2.49h-2.17Zm5.53-.29c0-1.55.88-1.94,1.51-1.94s1.51.39,1.51,1.94-.88,1.94-1.51,1.94-1.51-.39-1.51-1.94Zm-1.16,0c0,2.61,1.93,2.92,2.67,2.92s2.67-.32,2.67-2.92-1.93-2.92-2.67-2.92-2.67.32-2.67,2.92Zm10.87.84c0,1.46-.88,2.09-2.28,2.09-.51,0-1.27-.12-1.76-.67-.3-.34-.42-.79-.43-1.35v-3.68h1.18v3.6c0,.78.45,1.11.99,1.11.8,0,1.12-.39,1.12-1.06v-3.66h1.18v3.61s0,0,0,0Zm2.12.23c.01.31.17.9,1.18.9.55,0,1.16-.13,1.16-.72,0-.43-.42-.55-1-.69l-.6-.14c-.9-.21-1.76-.41-1.76-1.63,0-.62.33-1.71,2.14-1.71,1.7,0,2.16,1.11,2.17,1.79h-1.11c-.03-.25-.12-.84-1.14-.84-.44,0-.97.16-.97.66,0,.44.36.52.59.58l1.35.33c.76.19,1.45.5,1.45,1.49,0,1.67-1.7,1.82-2.19,1.82-2.02,0-2.37-1.17-2.37-1.86h1.11Zm5.56,1.71h-1.16v-5.55h1.16s0,5.55,0,5.55Zm4.63-5.55h1.08v5.55h-1.16l-2.26-3.96h-.02v3.96h-1.08v-5.55h1.22l2.2,3.87h.02s0-3.87,0-3.87Zm4.96,2.56h2.32v2.99h-.77l-.12-.7c-.29.34-.72.84-1.73.84-1.34,0-2.55-.96-2.55-2.91,0-1.51.84-2.95,2.71-2.94,1.7,0,2.38,1.1,2.43,1.87h-1.16c0-.22-.4-.91-1.21-.91s-1.59.57-1.59,1.99c0,1.52.83,1.91,1.62,1.91.26,0,1.11-.1,1.35-1.22h-1.29v-.93h0Zm-62.45,8.65c0-1.55.88-1.94,1.51-1.94s1.51.39,1.51,1.94-.88,1.94-1.51,1.94-1.51-.39-1.51-1.94Zm-1.16,0c0,2.6,1.93,2.93,2.67,2.93s2.67-.32,2.67-2.93-1.93-2.92-2.67-2.92-2.67.32-2.67,2.92Zm8.51-.19v-1.63h.92c.72,0,1.02.23,1.02.77,0,.25,0,.86-.87.86,0,0-1.07,0-1.07,0Zm0,.96h1.33c1.49,0,1.77-1.27,1.77-1.77,0-1.09-.65-1.78-1.72-1.78h-2.53v5.55h1.16s0-2,0-2Zm6.25-.96v-1.63h.92c.72,0,1.02.23,1.02.77,0,.25,0,.86-.86.86h-1.07Zm0,.96h1.33c1.49,0,1.77-1.27,1.77-1.77,0-1.09-.65-1.78-1.72-1.78h-2.54v5.55h1.16s0-2,0-2Zm6-.77c0-1.55.88-1.94,1.51-1.94s1.51.39,1.51,1.94-.88,1.94-1.51,1.94-1.51-.39-1.51-1.94Zm-1.16,0c0,2.6,1.93,2.93,2.67,2.93s2.66-.32,2.66-2.93-1.93-2.92-2.66-2.92-2.67.32-2.67,2.92Zm8.49-.33v-1.49h1.44c.68,0,.81.44.81.73,0,.55-.29.76-.9.76h-1.36Zm-1.14,3.11h1.14v-2.17h1.2c.86,0,.91.29.91,1.05,0,.57.04.86.12,1.12h1.28v-.15c-.25-.09-.25-.29-.25-1.1,0-1.04-.25-1.21-.7-1.41.55-.18.86-.71.86-1.32,0-.48-.27-1.57-1.75-1.57h-2.81v5.55h0Zm8.88,0h-1.16v-4.57h-1.68v-.98h4.51v.98h-1.68v4.57Zm7.9-1.94c0,1.46-.88,2.09-2.28,2.09-.51,0-1.27-.13-1.76-.68-.3-.34-.42-.79-.43-1.34v-3.68h1.18v3.6c0,.77.45,1.12.99,1.12.8,0,1.12-.39,1.12-1.06v-3.66h1.18v3.61h0,0Zm5.61-3.61h1.08v5.55h-1.16l-2.27-3.96h-.01v3.96h-1.08v-5.55h1.22l2.21,3.86h.01s0-3.86,0-3.86Zm4.36,5.55h-1.16v-5.55h1.16v5.55Zm4.53,0h-1.16v-4.57h-1.67v-.98h4.51v.98h-1.68v4.57Zm6.06,0h-1.16v-2.1l-1.92-3.46h1.37l1.15,2.41,1.1-2.41h1.31l-1.86,3.47s0,2.08,0,2.08ZM37.38,0L0,18.41v8.65h4.18v25.94h66.11v-25.94h5.02v-8.65L37.38,0Zm24.83,45.19H12.27v-23.71l25.11-12.83,24.83,12.83v23.71s0,0,0,0Z"/>
  <path class="cls-1" d="m48.81,29.84h-23.15v-8.37h23.15v8.37Zm0,12h-23.15v-8.37h23.15v8.37Z"/>
</svg>